<?xml version="1.0" encoding="utf-8"?><!DOCTYPE svg PUBLIC "-//W3C//DTD SVG 1.1//EN" "http://www.w3.org/Graphics/SVG/1.1/DTD/svg11.dtd"><svg xmlns="http://www.w3.org/2000/svg" xmlns:xlink="http://www.w3.org/1999/xlink"><symbol viewBox="0 0 448 512" id="arrow-up-solid" xmlns="http://www.w3.org/2000/svg"><!--!Font Awesome Free 6.6.0 by @fontawesome - https://fontawesome.com License - https://fontawesome.com/license/free Copyright 2024 Fonticons, Inc.--><path fill="#001724" d="m34.9 289.5-22.2-22.2c-9.4-9.4-9.4-24.6 0-33.9L207 39c9.4-9.4 24.6-9.4 33.9 0l194.3 194.3c9.4 9.4 9.4 24.6 0 33.9L413 289.4c-9.5 9.5-25 9.3-34.3-.4L264 168.6V456c0 13.3-10.7 24-24 24h-32c-13.3 0-24-10.7-24-24V168.6L69.2 289.1c-9.3 9.8-24.8 10-34.3.4z"/></symbol><symbol viewBox="0 0 448 512" id="bars-solid" xmlns="http://www.w3.org/2000/svg"><!--!Font Awesome Free 6.6.0 by @fontawesome - https://fontawesome.com License - https://fontawesome.com/license/free Copyright 2024 Fonticons, Inc.--><path fill="#b3f1d0" d="M16 132h416c8.8 0 16-7.2 16-16V76c0-8.8-7.2-16-16-16H16C7.2 60 0 67.2 0 76v40c0 8.8 7.2 16 16 16zm0 160h416c8.8 0 16-7.2 16-16v-40c0-8.8-7.2-16-16-16H16c-8.8 0-16 7.2-16 16v40c0 8.8 7.2 16 16 16zm0 160h416c8.8 0 16-7.2 16-16v-40c0-8.8-7.2-16-16-16H16c-8.8 0-16 7.2-16 16v40c0 8.8 7.2 16 16 16z"/></symbol><symbol viewBox="0 0 448 512" id="bars-solid-light" xmlns="http://www.w3.org/2000/svg"><!--!Font Awesome Free 6.6.0 by @fontawesome - https://fontawesome.com License - https://fontawesome.com/license/free Copyright 2024 Fonticons, Inc.--><path fill="#001724" d="M16 132h416c8.8 0 16-7.2 16-16V76c0-8.8-7.2-16-16-16H16C7.2 60 0 67.2 0 76v40c0 8.8 7.2 16 16 16zm0 160h416c8.8 0 16-7.2 16-16v-40c0-8.8-7.2-16-16-16H16c-8.8 0-16 7.2-16 16v40c0 8.8 7.2 16 16 16zm0 160h416c8.8 0 16-7.2 16-16v-40c0-8.8-7.2-16-16-16H16c-8.8 0-16 7.2-16 16v40c0 8.8 7.2 16 16 16z"/></symbol><symbol viewBox="0 0 512 512" id="check-circle-solid" xmlns="http://www.w3.org/2000/svg"><!--!Font Awesome Free 6.6.0 by @fontawesome - https://fontawesome.com License - https://fontawesome.com/license/free Copyright 2024 Fonticons, Inc.--><path fill="#001724" d="M504 256c0 137-111 248-248 248S8 393 8 256 119 8 256 8s248 111 248 248zM227.3 387.3l184-184c6.2-6.2 6.2-16.4 0-22.6l-22.6-22.6c-6.2-6.2-16.4-6.2-22.6 0L216 308.1 145.9 238c-6.2-6.2-16.4-6.2-22.6 0l-22.6 22.6c-6.2 6.2-6.2 16.4 0 22.6l104 104c6.2 6.2 16.4 6.2 22.6 0z"/></symbol><symbol viewBox="0 0 352 512" id="close-navigation" xmlns="http://www.w3.org/2000/svg"><!--!Font Awesome Free 6.6.0 by @fontawesome - https://fontawesome.com License - https://fontawesome.com/license/free Copyright 2024 Fonticons, Inc.--><path fill="#b3f1d0" d="m242.7 256 100.1-100.1c12.3-12.3 12.3-32.2 0-44.5l-22.2-22.2c-12.3-12.3-32.2-12.3-44.5 0L176 189.3 75.9 89.2c-12.3-12.3-32.2-12.3-44.5 0L9.2 111.5c-12.3 12.3-12.3 32.2 0 44.5l100.1 100L9.2 356.1c-12.3 12.3-12.3 32.2 0 44.5l22.2 22.2c12.3 12.3 32.2 12.3 44.5 0L176 322.7l100.1 100.1c12.3 12.3 32.2 12.3 44.5 0l22.2-22.2c12.3-12.3 12.3-32.2 0-44.5L242.7 256z"/></symbol><symbol viewBox="0 0 352 512" id="close-navigation-light" xmlns="http://www.w3.org/2000/svg"><!--!Font Awesome Free 6.6.0 by @fontawesome - https://fontawesome.com License - https://fontawesome.com/license/free Copyright 2024 Fonticons, Inc.--><path fill="#001724" d="m242.7 256 100.1-100.1c12.3-12.3 12.3-32.2 0-44.5l-22.2-22.2c-12.3-12.3-32.2-12.3-44.5 0L176 189.3 75.9 89.2c-12.3-12.3-32.2-12.3-44.5 0L9.2 111.5c-12.3 12.3-12.3 32.2 0 44.5l100.1 100L9.2 356.1c-12.3 12.3-12.3 32.2 0 44.5l22.2 22.2c12.3 12.3 32.2 12.3 44.5 0L176 322.7l100.1 100.1c12.3 12.3 32.2 12.3 44.5 0l22.2-22.2c12.3-12.3 12.3-32.2 0-44.5L242.7 256z"/></symbol><symbol fill="#b3f1d0" viewBox="0 0 43.916 43.916" xml:space="preserve" id="cv" xmlns="http://www.w3.org/2000/svg"><path d="M34.395 0H9.522a5 5 0 0 0-5 5v33.916a5 5 0 0 0 5 5h24.871a5 5 0 0 0 5-5V5a4.999 4.999 0 0 0-4.998-5zM9.208 16.855c0-1.172.951-2.121 2.121-2.121h.742a4.906 4.906 0 0 1-1.277-3.304 4.932 4.932 0 0 1 9.864.001 4.899 4.899 0 0 1-1.279 3.303h.709a2.12 2.12 0 0 1 2.121 2.121v3.578c0 1.122-.875 2.03-1.975 2.106h-9.051a2.115 2.115 0 0 1-1.975-2.106v-3.578zm23.5 20.561h-21.5a2 2 0 0 1 0-4h21.5a2 2 0 0 1 0 4zm0-7.5h-21.5a2 2 0 0 1 0-4h21.5a2 2 0 0 1 0 4zm0-7.5h-6.5a2 2 0 0 1 0-4h6.5a2 2 0 0 1 0 4z"/></symbol><symbol fill="#001724" viewBox="0 0 43.916 43.916" xml:space="preserve" id="cv-light" xmlns="http://www.w3.org/2000/svg"><path d="M34.395 0H9.522a5 5 0 0 0-5 5v33.916a5 5 0 0 0 5 5h24.871a5 5 0 0 0 5-5V5a4.999 4.999 0 0 0-4.998-5zM9.208 16.855c0-1.172.951-2.121 2.121-2.121h.742a4.906 4.906 0 0 1-1.277-3.304 4.932 4.932 0 0 1 9.864.001 4.899 4.899 0 0 1-1.279 3.303h.709a2.12 2.12 0 0 1 2.121 2.121v3.578c0 1.122-.875 2.03-1.975 2.106h-9.051a2.115 2.115 0 0 1-1.975-2.106v-3.578zm23.5 20.561h-21.5a2 2 0 0 1 0-4h21.5a2 2 0 0 1 0 4zm0-7.5h-21.5a2 2 0 0 1 0-4h21.5a2 2 0 0 1 0 4zm0-7.5h-6.5a2 2 0 0 1 0-4h6.5a2 2 0 0 1 0 4z"/></symbol><symbol viewBox="0 0 496 512" id="github-brands-solid" xmlns="http://www.w3.org/2000/svg"><!--!Font Awesome Free 6.6.0 by @fontawesome - https://fontawesome.com License - https://fontawesome.com/license/free Copyright 2024 Fonticons, Inc.--><path fill="#b3f1d0" d="M165.9 397.4c0 2-2.3 3.6-5.2 3.6-3.3.3-5.6-1.3-5.6-3.6 0-2 2.3-3.6 5.2-3.6 3-.3 5.6 1.3 5.6 3.6zm-31.1-4.5c-.7 2 1.3 4.3 4.3 4.9 2.6 1 5.6 0 6.2-2s-1.3-4.3-4.3-5.2c-2.6-.7-5.5.3-6.2 2.3zm44.2-1.7c-2.9.7-4.9 2.6-4.6 4.9.3 2 2.9 3.3 5.9 2.6 2.9-.7 4.9-2.6 4.6-4.6-.3-1.9-3-3.2-5.9-2.9zM244.8 8C106.1 8 0 113.3 0 252c0 110.9 69.8 205.8 169.5 239.2 12.8 2.3 17.3-5.6 17.3-12.1 0-6.2-.3-40.4-.3-61.4 0 0-70 15-84.7-29.8 0 0-11.4-29.1-27.8-36.6 0 0-22.9-15.7 1.6-15.4 0 0 24.9 2 38.6 25.8 21.9 38.6 58.6 27.5 72.9 20.9 2.3-16 8.8-27.1 16-33.7-55.9-6.2-112.3-14.3-112.3-110.5 0-27.5 7.6-41.3 23.6-58.9-2.6-6.5-11.1-33.3 2.6-67.9 20.9-6.5 69 27 69 27 20-5.6 41.5-8.5 62.8-8.5s42.8 2.9 62.8 8.5c0 0 48.1-33.6 69-27 13.7 34.7 5.2 61.4 2.6 67.9 16 17.7 25.8 31.5 25.8 58.9 0 96.5-58.9 104.2-114.8 110.5 9.2 7.9 17 22.9 17 46.4 0 33.7-.3 75.4-.3 83.6 0 6.5 4.6 14.4 17.3 12.1C428.2 457.8 496 362.9 496 252 496 113.3 383.5 8 244.8 8zM97.2 352.9c-1.3 1-1 3.3.7 5.2 1.6 1.6 3.9 2.3 5.2 1 1.3-1 1-3.3-.7-5.2-1.6-1.6-3.9-2.3-5.2-1zm-10.8-8.1c-.7 1.3.3 2.9 2.3 3.9 1.6 1 3.6.7 4.3-.7.7-1.3-.3-2.9-2.3-3.9-2-.6-3.6-.3-4.3.7zm32.4 35.6c-1.6 1.3-1 4.3 1.3 6.2 2.3 2.3 5.2 2.6 6.5 1 1.3-1.3.7-4.3-1.3-6.2-2.2-2.3-5.2-2.6-6.5-1zm-11.4-14.7c-1.6 1-1.6 3.6 0 5.9 1.6 2.3 4.3 3.3 5.6 2.3 1.6-1.3 1.6-3.9 0-6.2-1.4-2.3-4-3.3-5.6-2z"/></symbol><symbol viewBox="0 0 496 512" id="github-brands-solid-light" xmlns="http://www.w3.org/2000/svg"><!--!Font Awesome Free 6.6.0 by @fontawesome - https://fontawesome.com License - https://fontawesome.com/license/free Copyright 2024 Fonticons, Inc.--><path fill="#001724" d="M165.9 397.4c0 2-2.3 3.6-5.2 3.6-3.3.3-5.6-1.3-5.6-3.6 0-2 2.3-3.6 5.2-3.6 3-.3 5.6 1.3 5.6 3.6zm-31.1-4.5c-.7 2 1.3 4.3 4.3 4.9 2.6 1 5.6 0 6.2-2s-1.3-4.3-4.3-5.2c-2.6-.7-5.5.3-6.2 2.3zm44.2-1.7c-2.9.7-4.9 2.6-4.6 4.9.3 2 2.9 3.3 5.9 2.6 2.9-.7 4.9-2.6 4.6-4.6-.3-1.9-3-3.2-5.9-2.9zM244.8 8C106.1 8 0 113.3 0 252c0 110.9 69.8 205.8 169.5 239.2 12.8 2.3 17.3-5.6 17.3-12.1 0-6.2-.3-40.4-.3-61.4 0 0-70 15-84.7-29.8 0 0-11.4-29.1-27.8-36.6 0 0-22.9-15.7 1.6-15.4 0 0 24.9 2 38.6 25.8 21.9 38.6 58.6 27.5 72.9 20.9 2.3-16 8.8-27.1 16-33.7-55.9-6.2-112.3-14.3-112.3-110.5 0-27.5 7.6-41.3 23.6-58.9-2.6-6.5-11.1-33.3 2.6-67.9 20.9-6.5 69 27 69 27 20-5.6 41.5-8.5 62.8-8.5s42.8 2.9 62.8 8.5c0 0 48.1-33.6 69-27 13.7 34.7 5.2 61.4 2.6 67.9 16 17.7 25.8 31.5 25.8 58.9 0 96.5-58.9 104.2-114.8 110.5 9.2 7.9 17 22.9 17 46.4 0 33.7-.3 75.4-.3 83.6 0 6.5 4.6 14.4 17.3 12.1C428.2 457.8 496 362.9 496 252 496 113.3 383.5 8 244.8 8zM97.2 352.9c-1.3 1-1 3.3.7 5.2 1.6 1.6 3.9 2.3 5.2 1 1.3-1 1-3.3-.7-5.2-1.6-1.6-3.9-2.3-5.2-1zm-10.8-8.1c-.7 1.3.3 2.9 2.3 3.9 1.6 1 3.6.7 4.3-.7.7-1.3-.3-2.9-2.3-3.9-2-.6-3.6-.3-4.3.7zm32.4 35.6c-1.6 1.3-1 4.3 1.3 6.2 2.3 2.3 5.2 2.6 6.5 1 1.3-1.3.7-4.3-1.3-6.2-2.2-2.3-5.2-2.6-6.5-1zm-11.4-14.7c-1.6 1-1.6 3.6 0 5.9 1.6 2.3 4.3 3.3 5.6 2.3 1.6-1.3 1.6-3.9 0-6.2-1.4-2.3-4-3.3-5.6-2z"/></symbol><symbol viewBox="0 0 448 512" id="linkedin-in-brands-solid" xmlns="http://www.w3.org/2000/svg"><!--!Font Awesome Free 6.6.0 by @fontawesome - https://fontawesome.com License - https://fontawesome.com/license/free Copyright 2024 Fonticons, Inc.--><path fill="#b3f1d0" d="M100.3 448H7.4V148.9h92.9zM53.8 108.1C24.1 108.1 0 83.5 0 53.8a53.8 53.8 0 0 1 107.6 0c0 29.7-24.1 54.3-53.8 54.3zM447.9 448h-92.7V302.4c0-34.7-.7-79.2-48.3-79.2-48.3 0-55.7 37.7-55.7 76.7V448h-92.8V148.9h89.1v40.8h1.3c12.4-23.5 42.7-48.3 87.9-48.3 94 0 111.3 61.9 111.3 142.3V448z"/></symbol><symbol viewBox="0 0 448 512" id="linkedin-in-brands-solid-light" xmlns="http://www.w3.org/2000/svg"><!--!Font Awesome Free 6.6.0 by @fontawesome - https://fontawesome.com License - https://fontawesome.com/license/free Copyright 2024 Fonticons, Inc.--><path fill="#001724" d="M100.3 448H7.4V148.9h92.9zM53.8 108.1C24.1 108.1 0 83.5 0 53.8a53.8 53.8 0 0 1 107.6 0c0 29.7-24.1 54.3-53.8 54.3zM447.9 448h-92.7V302.4c0-34.7-.7-79.2-48.3-79.2-48.3 0-55.7 37.7-55.7 76.7V448h-92.8V148.9h89.1v40.8h1.3c12.4-23.5 42.7-48.3 87.9-48.3 94 0 111.3 61.9 111.3 142.3V448z"/></symbol><symbol viewBox="0 0 512 512" id="moon-solid" xmlns="http://www.w3.org/2000/svg"><!--!Font Awesome Free 6.6.0 by @fontawesome - https://fontawesome.com License - https://fontawesome.com/license/free Copyright 2024 Fonticons, Inc.--><path fill="#001724" d="M283.2 512c79 0 151.1-35.9 198.9-94.8 7.1-8.7-.6-21.4-11.6-19.4-124.2 23.7-238.3-71.6-238.3-197 0-72.2 38.7-138.6 101.5-174.4 9.7-5.5 7.3-20.2-3.8-22.2A258.2 258.2 0 0 0 283.2 0c-141.3 0-256 114.5-256 256 0 141.3 114.5 256 256 256z"/></symbol><symbol viewBox="0 0 512 512" id="search-solid" xmlns="http://www.w3.org/2000/svg"><!--!Font Awesome Free 6.6.0 by @fontawesome - https://fontawesome.com License - https://fontawesome.com/license/free Copyright 2024 Fonticons, Inc.--><path d="M505 442.7 405.3 343c-4.5-4.5-10.6-7-17-7H372c27.6-35.3 44-79.7 44-128C416 93.1 322.9 0 208 0S0 93.1 0 208s93.1 208 208 208c48.3 0 92.7-16.4 128-44v16.3c0 6.4 2.5 12.5 7 17l99.7 99.7c9.4 9.4 24.6 9.4 33.9 0l28.3-28.3c9.4-9.4 9.4-24.6.1-34zM208 336c-70.7 0-128-57.2-128-128 0-70.7 57.2-128 128-128 70.7 0 128 57.2 128 128 0 70.7-57.2 128-128 128z"/></symbol><symbol viewBox="0 0 512 512" id="sun-solid" xmlns="http://www.w3.org/2000/svg"><!--!Font Awesome Free 6.6.0 by @fontawesome - https://fontawesome.com License - https://fontawesome.com/license/free Copyright 2024 Fonticons, Inc.--><path fill="#b3f1d0" d="M256 160c-52.9 0-96 43.1-96 96s43.1 96 96 96 96-43.1 96-96-43.1-96-96-96zm246.4 80.5-94.7-47.3 33.5-100.4c4.5-13.6-8.4-26.5-21.9-21.9l-100.4 33.5-47.4-94.8c-6.4-12.8-24.6-12.8-31 0l-47.3 94.7L92.7 70.8c-13.6-4.5-26.5 8.4-21.9 21.9l33.5 100.4-94.7 47.4c-12.8 6.4-12.8 24.6 0 31l94.7 47.3-33.5 100.5c-4.5 13.6 8.4 26.5 21.9 21.9l100.4-33.5 47.3 94.7c6.4 12.8 24.6 12.8 31 0l47.3-94.7 100.4 33.5c13.6 4.5 26.5-8.4 21.9-21.9l-33.5-100.4 94.7-47.3c13-6.5 13-24.7.2-31.1zm-155.9 106c-49.9 49.9-131.1 49.9-181 0-49.9-49.9-49.9-131.1 0-181 49.9-49.9 131.1-49.9 181 0 49.9 49.9 49.9 131.1 0 181z"/></symbol><symbol viewBox="0 0 352 512" id="times-solid" xmlns="http://www.w3.org/2000/svg"><!--!Font Awesome Free 6.6.0 by @fontawesome - https://fontawesome.com License - https://fontawesome.com/license/free Copyright 2024 Fonticons, Inc.--><path fill="#001724" d="m242.7 256 100.1-100.1c12.3-12.3 12.3-32.2 0-44.5l-22.2-22.2c-12.3-12.3-32.2-12.3-44.5 0L176 189.3 75.9 89.2c-12.3-12.3-32.2-12.3-44.5 0L9.2 111.5c-12.3 12.3-12.3 32.2 0 44.5l100.1 100L9.2 356.1c-12.3 12.3-12.3 32.2 0 44.5l22.2 22.2c12.3 12.3 32.2 12.3 44.5 0L176 322.7l100.1 100.1c12.3 12.3 32.2 12.3 44.5 0l22.2-22.2c12.3-12.3 12.3-32.2 0-44.5L242.7 256z"/></symbol></svg>