<?xml version="1.0" encoding="utf-8"?>
<!-- Generator: Adobe Illustrator 19.0.0, SVG Export Plug-In . SVG Version: 6.00 Build 0)  -->
<svg version="1.1" id="Layer_1" xmlns="http://www.w3.org/2000/svg" xmlns:xlink="http://www.w3.org/1999/xlink" x="0px" y="0px"
	 viewBox="0 0 200.71851 31.75" style="enable-background:new 0 0 200.71851 31.75;" xml:space="preserve">
<style type="text/css">
	.st0{fill:#242676;}
	.st1{fill:none;stroke:#242676;stroke-width:3.1867;stroke-miterlimit:22.92558;}
	.st2{fill:none;stroke:#242676;stroke-width:3.18672;stroke-miterlimit:22.92558;}
	.st3{fill:none;stroke:#5693CE;stroke-width:3.18672;stroke-miterlimit:22.92558;}
</style>
<g>
	<path class="st0" d="M183.68359,11.0036h3.1879v1.28839c0.20352-1.0043,1.24442-1.50659,3.12201-1.50659
		c0.98959,0,1.73941,0.1272,2.24881,0.38211c0.5094,0.25479,0.8515,0.6514,1.02609,1.18988
		c0.17459-0.55328,0.51309-0.95349,1.01541-1.20068c0.50198-0.2475,1.26248-0.37131,2.28128-0.37131
		c0.91699,0,1.62311,0.10541,2.11801,0.31659c0.49469,0.21091,0.84048,0.53491,1.03699,0.97141
		c0.19641,0.4368,0.2948,1.0191,0.2948,1.7467v7.75079h-3.18759v-7.314c0-0.466-0.02921-0.79709-0.08731-0.9935
		c-0.05838-0.19641-0.1857-0.33109-0.38208-0.4039c-0.19672-0.07291-0.53491-0.10919-1.01541-0.10919
		c-0.59671,0-1.0224,0.03629-1.27731,0.10919c-0.25449,0.07281-0.42209,0.20749-0.50198,0.4039
		c-0.0802,0.19641-0.12021,0.5275-0.12021,0.9935v7.314h-3.1875v-7.314c0-0.466-0.02921-0.79709-0.08728-0.9935
		c-0.05823-0.19641-0.1857-0.33109-0.3822-0.4039c-0.19641-0.07291-0.53491-0.10919-1.01501-0.10919
		c-0.59698,0-1.0228,0.03629-1.27728,0.10919c-0.25491,0.07281-0.42212,0.20749-0.50232,0.4039
		c-0.07999,0.19641-0.1199,0.5275-0.1199,0.9935v7.314h-3.1879V11.0036z M175.60571,19.8024
		c0.64038,0,1.09869-0.02191,1.3754-0.06549c0.2038-0.02921,0.34579-0.07291,0.42578-0.13101
		c0.0799-0.05811,0.14911-0.1528,0.20752-0.28369c0.05807-0.10211,0.08728-0.25491,0.08728-0.45871v-2.05231h-2.18329
		c-0.4949,0-0.84441,0.0329-1.0479,0.09842c-0.2039,0.06549-0.34221,0.19638-0.41501,0.39288
		c-0.07289,0.19641-0.10919,0.5423-0.10919,1.0372c0,0.48019,0.0363,0.81491,0.10919,1.0043
		c0.0728,0.18912,0.21451,0.3129,0.4257,0.37109C174.6924,19.77341,175.06711,19.8024,175.60571,19.8024z M174.36099,21.78922
		c-0.98949,0-1.7282-0.091-2.21579-0.27301c-0.48761-0.1817-0.8297-0.5094-1.02611-0.98251
		c-0.19679-0.47278-0.2948-1.18259-0.2948-2.12848c0-0.84421,0.10541-1.50662,0.3166-1.98682
		c0.21091-0.4805,0.55299-0.82611,1.02611-1.0372c0.4731-0.21091,1.12419-0.31668,1.95389-0.31668h3.5808V14.3443
		c0-0.45129-0.0618-0.7861-0.1857-1.00439c-0.1236-0.21851-0.34918-0.37131-0.67688-0.45862
		c-0.32742-0.08728-0.81873-0.13098-1.47372-0.13098c-0.90228,0-2.13959,0.08728-3.71138,0.26199v-2.0087
		c1.14969-0.14542,2.49609-0.2182,4.03899-0.2182c1.35361,0,2.39792,0.10199,3.1329,0.30551
		c0.73502,0.2038,1.26282,0.55338,1.5831,1.04797c0.3201,0.4949,0.48019,1.21552,0.48019,2.16171v7.27029h-3.1221V20.6102
		c-0.24738,0.42209-0.58218,0.72061-1.0043,0.8952C176.34079,21.69449,175.54031,21.78922,174.36099,21.78922z M162.7021,11.0036
		h3.03479v1.8559c0-0.33481,0.13831-0.6622,0.41501-0.98248c0.2764-0.32013,0.62959-0.58231,1.0587-0.7861
		c0.4295-0.20352,0.8553-0.30551,1.2773-0.30551h1.1353v2.64178h-1.0916c-0.9023,0-1.5681,0.13843-1.9976,0.41483
		c-0.4294,0.27658-0.644,0.73499-0.644,1.37558v6.3533h-3.1879V11.0036z M154.47121,19.8024
		c0.6259,0,1.09529-0.0437,1.40819-0.13101c0.313-0.08728,0.53151-0.22928,0.65511-0.42578
		c0.1239-0.19641,0.1857-0.4765,0.1857-0.84039V14.1478c0-0.39319-0.0584-0.68799-0.17461-0.8844
		c-0.1165-0.19641-0.34219-0.33109-0.6769-0.4039c-0.33479-0.07291-0.8589-0.10919-1.5721-0.10919
		c-0.58231,0-1.0114,0.0437-1.2881,0.13098c-0.2767,0.08731-0.46201,0.23672-0.5567,0.4476
		c-0.0947,0.21121-0.142,0.52042-0.142,0.92801v4.03909c0,0.45102,0.0473,0.77502,0.142,0.9715
		c0.0947,0.19641,0.2874,0.33472,0.57851,0.41501C153.3214,19.76239,153.80161,19.8024,154.47121,19.8024z M153.7072,26.37421
		c-1.7175,0-2.9911-0.05099-3.8208-0.1528v-2.13962c1.3683,0.18912,2.64191,0.28381,3.8208,0.28381
		c1.0769,0,1.8485-0.17459,2.31419-0.5242c0.46581-0.34921,0.69881-0.9314,0.69881-1.7464v-1.703
		c-0.26221,0.37839-0.5168,0.6658-0.76421,0.8623c-0.2475,0.19641-0.5712,0.33469-0.9715,0.41501
		c-0.4005,0.0799-0.94989,0.1199-1.64859,0.1199c-1.0332,0-1.8558-0.09811-2.46701-0.29483
		c-0.61139-0.19647-1.0553-0.5239-1.3317-0.98248c-0.2767-0.4584-0.41501-1.09531-0.41501-1.91031v-4.1264
		c0-0.9751,0.1273-1.72488,0.38211-2.24869c0.25479-0.52411,0.69139-0.8952,1.30989-1.11371
		c0.6188-0.21829,1.5103-0.32739,2.6745-0.32739c0.75711,0,1.3394,0.04361,1.7467,0.13089
		c0.3932,0.08731,0.69141,0.21832,0.8952,0.39322c0.2038,0.17459,0.4368,0.47278,0.6987,0.8952V11.0036h3.0784v11.1351
		c0,1.4989-0.513,2.5798-1.5392,3.242C157.34241,26.04309,155.78841,26.37421,153.7072,26.37421z M141.56821,19.8024
		c0.59669,0,1.0479-0.04739,1.3535-0.14178c0.30559-0.0946,0.52039-0.24402,0.644-0.4476
		c0.1236-0.20383,0.1857-0.50232,0.1857-0.89511v-3.99551c0-0.58218-0.1528-0.98978-0.4586-1.22278
		c-0.3056-0.23282-0.88051-0.3493-1.72459-0.3493c-0.84451,0-1.41931,0.11649-1.7249,0.3493
		c-0.30591,0.233-0.45871,0.64059-0.45871,1.22278v3.99551c0,0.39279,0.0621,0.69128,0.1857,0.89511
		c0.1236,0.20358,0.3385,0.353,0.644,0.4476C140.5199,19.755,140.97121,19.8024,141.56821,19.8024z M141.56821,21.78922
		c-0.65511,0-1.19371-0.02191-1.61581-0.06552c-0.42209-0.0437-0.87329-0.13098-1.35349-0.2619
		c-0.5242-0.14569-0.94621-0.35291-1.2666-0.62219c-0.32001-0.26929-0.58931-0.6514-0.8078-1.14639
		c-0.21831-0.48019-0.32741-1.06241-0.32741-1.7467v-3.1221c0-0.6987,0.1091-1.30981,0.32741-1.83401
		c0.21849-0.52377,0.50229-0.9314,0.8515-1.2226c0.30589-0.24741,0.70979-0.4549,1.21179-0.62219
		c0.5023-0.16751,0.99361-0.27289,1.47369-0.31659c0.5531-0.02921,1.0554-0.04361,1.50671-0.04361
		c0.66949,0,1.20439,0.0181,1.60469,0.05469c0.40021,0.03622,0.84041,0.1272,1.3206,0.27271
		c0.52409,0.1601,0.94991,0.37869,1.2773,0.655c0.3277,0.2767,0.6078,0.66962,0.84081,1.17902
		c0.2182,0.52408,0.32739,1.14999,0.32739,1.87759v3.1221c0,0.65509-0.1055,1.23001-0.3167,1.72488
		c-0.21089,0.4949-0.4838,0.88071-0.8186,1.1571c-0.29109,0.2475-0.6877,0.4476-1.19,0.6004
		c-0.502,0.15311-0.99329,0.2511-1.47369,0.2948C142.7034,21.7673,142.17931,21.78922,141.56821,21.78922z M127.8349,11.0036h3.0347
		v1.8559c0-0.33481,0.1384-0.6622,0.41501-0.98248c0.2764-0.32013,0.62959-0.58231,1.05879-0.7861
		c0.4294-0.20352,0.85519-0.30551,1.2773-0.30551h1.13521v2.64178h-1.0916c-0.90231,0-1.5681,0.13843-1.9976,0.41483
		c-0.4294,0.27658-0.644,0.73499-0.644,1.37558v6.3533h-3.18781V11.0036z M119.90981,19.8024c0.6259,0,1.099-0.0437,1.41899-0.13101
		c0.3203-0.08728,0.5386-0.24008,0.65511-0.45837c0.1165-0.21851,0.17459-0.5459,0.17459-0.98242v-3.9082
		c0-0.48038-0.05099-0.82599-0.15279-1.0372c-0.10201-0.21088-0.3056-0.35287-0.6114-0.42569
		c-0.3056-0.07291-0.8076-0.10919-1.50641-0.10919c-0.59669,0-1.05159,0.05109-1.36459,0.1528
		c-0.3129,0.10208-0.52409,0.26221-0.63319,0.4805c-0.10921,0.21829-0.1636,0.53119-0.1636,0.93878v3.9082
		c0,0.43652,0.0544,0.76392,0.1636,0.98242c0.1091,0.21829,0.31659,0.37109,0.62219,0.45837
		C118.8181,19.7587,119.28391,19.8024,119.90981,19.8024z M114.5387,11.0036h3.01291v1.048
		c0.18939-0.4657,0.56039-0.79309,1.1138-0.98251c0.55299-0.18909,1.37529-0.28369,2.46689-0.28369
		c0.9171,0,1.65581,0.07278,2.2162,0.2182c0.56041,0.14569,0.9861,0.37839,1.2773,0.69879
		c0.27631,0.32031,0.46571,0.67322,0.5675,1.05902c0.10201,0.3855,0.15269,0.9133,0.15269,1.58289v3.47131
		c0,1.04788-0.15269,1.85577-0.4583,2.42358c-0.30559,0.5675-0.77499,0.96771-1.40829,1.20071
		c-0.63319,0.23279-1.4955,0.3493-2.5871,0.3493c-1.048,0-1.8049-0.08731-2.2706-0.26202
		c-0.466-0.17459-0.76421-0.51669-0.8952-1.02609v5.61121h-3.18781V11.0036z M103.4476,6.2879h3.18781v15.28299h-3.18781V6.2879z
		 M95.28239,19.8024c0.6403,0,1.09871-0.02191,1.37531-0.06549c0.2038-0.02921,0.3459-0.07291,0.4258-0.13101
		c0.07991-0.05811,0.14911-0.1528,0.2075-0.28369c0.05811-0.10211,0.0873-0.25491,0.0873-0.45871v-2.05231h-2.1832
		c-0.495,0-0.8445,0.0329-1.048,0.09842c-0.2038,0.06549-0.34219,0.19638-0.41499,0.39288
		c-0.07291,0.19641-0.1091,0.5423-0.1091,1.0372c0,0.48019,0.03619,0.81491,0.1091,1.0043
		c0.0728,0.18912,0.2146,0.3129,0.4258,0.37109C94.369,19.77341,94.7438,19.8024,95.28239,19.8024z M94.0377,21.78922
		c-0.98961,0-1.7283-0.091-2.21591-0.27301c-0.48749-0.1817-0.8297-0.5094-1.02609-0.98251
		c-0.1967-0.47278-0.2948-1.18259-0.2948-2.12848c0-0.84421,0.10539-1.50662,0.3166-1.98682
		c0.21089-0.4805,0.5531-0.82611,1.0262-1.0372c0.4731-0.21091,1.12419-0.31668,1.9539-0.31668h3.58069V14.3443
		c0-0.45129-0.0618-0.7861-0.1857-1.00439c-0.1236-0.21851-0.3492-0.37131-0.6769-0.45862
		c-0.32741-0.08728-0.8186-0.13098-1.47369-0.13098c-0.90231,0-2.1396,0.08728-3.71141,0.26199v-2.0087
		c1.1497-0.14542,2.4962-0.2182,4.03911-0.2182c1.3535,0,2.3978,0.10199,3.1328,0.30551
		c0.735,0.2038,1.26289,0.55338,1.58319,1.04797c0.32001,0.4949,0.48021,1.21552,0.48021,2.16171v7.27029h-3.1221V20.6102
		c-0.2475,0.42209-0.58231,0.72061-1.0043,0.8952C96.0174,21.69449,95.2169,21.78922,94.0377,21.78922z M71.9209,11.0036h3.1879
		v1.28839c0.20351-1.0043,1.2444-1.50659,3.12201-1.50659c0.98959,0,1.7394,0.1272,2.24879,0.38211
		c0.50931,0.25479,0.8515,0.6514,1.02611,1.18988c0.17459-0.55328,0.51309-0.95349,1.0154-1.20068
		c0.502-0.2475,1.2625-0.37131,2.2813-0.37131c0.91701,0,1.62311,0.10541,2.118,0.31659
		c0.49471,0.21091,0.8405,0.53491,1.037,0.97141c0.1964,0.4368,0.2948,1.0191,0.2948,1.7467v7.75079h-3.18759v-7.314
		c0-0.466-0.02921-0.79709-0.08731-0.9935c-0.0584-0.19641-0.1857-0.33109-0.3821-0.4039
		c-0.1967-0.07291-0.5349-0.10919-1.0154-0.10919c-0.59671,0-1.0224,0.03629-1.2773,0.10919
		c-0.2545,0.07281-0.4221,0.20749-0.502,0.4039c-0.0802,0.19641-0.12021,0.5275-0.12021,0.9935v7.314h-3.1875v-7.314
		c0-0.466-0.02921-0.79709-0.0874-0.9935c-0.05809-0.19641-0.18559-0.33109-0.3821-0.4039
		c-0.1964-0.07291-0.5349-0.10919-1.015-0.10919c-0.597,0-1.0228,0.03629-1.2773,0.10919
		c-0.2549,0.07281-0.4221,0.20749-0.5023,0.4039c-0.08,0.19641-0.1199,0.5275-0.1199,0.9935v7.314h-3.1879V11.0036z
		 M65.85139,11.0036h3.18781v10.56729h-3.18781V11.0036z M65.85139,7.18311h3.18781v2.57608h-3.18781V7.18311z M62.1618,21.78922
		c-0.5386,0-0.9899-0.02191-1.35381-0.06552c-0.36369-0.0437-0.72769-0.13098-1.09171-0.2619
		c-0.40729-0.13098-0.73869-0.31299-0.99319-0.54599c-0.25479-0.2327-0.4623-0.55301-0.62219-0.96069
		c-0.17491-0.422-0.26221-0.90961-0.26221-1.46262v-5.5239h-2.1396v-1.965h2.1396V7.94699h3.18781v3.05661h2.90379v1.965H61.0265
		v4.97791c0,0.5097,0.0437,0.89151,0.131,1.14639c0.0873,0.25479,0.2545,0.43649,0.502,0.5459
		c0.2475,0.1091,0.6259,0.1636,1.1353,0.1636c0.2038,0,0.5822-0.03629,1.1355-0.10919v1.98679
		C63.246,21.7529,62.65669,21.78922,62.1618,21.78922z M48.9529,19.8024c0.6259,0,1.099-0.0437,1.41901-0.13101
		c0.3204-0.08728,0.5386-0.24008,0.65509-0.45837c0.1165-0.21851,0.17461-0.5459,0.17461-0.98242v-3.9082
		c0-0.48038-0.05099-0.82599-0.15269-1.0372c-0.10211-0.21088-0.3056-0.35287-0.61151-0.42569
		c-0.30559-0.07291-0.80759-0.10919-1.50629-0.10919c-0.59671,0-1.05171,0.05109-1.36461,0.1528
		c-0.313,0.10208-0.52409,0.26221-0.6333,0.4805c-0.1091,0.21829-0.1635,0.53119-0.1635,0.93878v3.9082
		c0,0.43652,0.0544,0.76392,0.1635,0.98242c0.10921,0.21829,0.3167,0.37109,0.62221,0.45837
		C47.8613,19.7587,48.327,19.8024,48.9529,19.8024z M43.5818,11.0036h3.013v1.048c0.1893-0.4657,0.56039-0.79309,1.11369-0.98251
		c0.55301-0.18909,1.3754-0.28369,2.46701-0.28369c0.91699,0,1.6557,0.07278,2.21609,0.2182
		c0.56039,0.14569,0.98621,0.37839,1.2773,0.69879c0.2764,0.32031,0.4657,0.67322,0.5675,1.05902
		c0.1021,0.3855,0.1528,0.9133,0.1528,1.58289v3.47131c0,1.04788-0.1528,1.85577-0.4584,2.42358
		c-0.3055,0.5675-0.77499,0.96771-1.4082,1.20071c-0.6333,0.23279-1.49561,0.3493-2.5872,0.3493
		c-1.04799,0-1.80479-0.08731-2.27049-0.26202c-0.46609-0.17459-0.76431-0.51669-0.8952-1.02609v5.61121h-3.1879V11.0036z
		 M35.7222,19.8024c0.5967,0,1.048-0.04739,1.3535-0.14178c0.3056-0.0946,0.5205-0.24402,0.6441-0.4476
		c0.1236-0.20383,0.1856-0.50232,0.1856-0.89511v-3.99551c0-0.58218-0.1527-0.98978-0.4586-1.22278
		c-0.3056-0.23282-0.8804-0.3493-1.7246-0.3493c-0.8444,0-1.4193,0.11649-1.7249,0.3493
		c-0.3058,0.233-0.4586,0.64059-0.4586,1.22278v3.99551c0,0.39279,0.0621,0.69128,0.1856,0.89511
		c0.1236,0.20358,0.3385,0.353,0.6441,0.4476C34.674,19.755,35.1252,19.8024,35.7222,19.8024z M35.7222,21.78922
		c-0.6551,0-1.1937-0.02191-1.6157-0.06552c-0.4221-0.0437-0.8734-0.13098-1.3536-0.2619
		c-0.5241-0.14569-0.9462-0.35291-1.2665-0.62219c-0.32-0.26929-0.58929-0.6514-0.8079-1.14639
		c-0.2182-0.48019-0.3274-1.06241-0.3274-1.7467v-3.1221c0-0.6987,0.1092-1.30981,0.3274-1.83401
		c0.21861-0.52377,0.5023-0.9314,0.8515-1.2226c0.3059-0.24741,0.7098-0.4549,1.2119-0.62219
		c0.5023-0.16751,0.9935-0.27289,1.4737-0.31659c0.553-0.02921,1.0553-0.04361,1.5066-0.04361
		c0.6695,0,1.2044,0.0181,1.6047,0.05469c0.4002,0.03622,0.8405,0.1272,1.3207,0.27271c0.5241,0.1601,0.9498,0.37869,1.2773,0.655
		c0.32761,0.2767,0.6077,0.66962,0.84071,1.17902c0.2183,0.52408,0.3274,1.14999,0.3274,1.87759v3.1221
		c0,0.65509-0.1054,1.23001-0.3166,1.72488c-0.2109,0.4949-0.48389,0.88071-0.8187,1.1571
		c-0.2911,0.2475-0.68771,0.4476-1.19,0.6004c-0.502,0.15311-0.9932,0.2511-1.4737,0.2948
		C36.8575,21.7673,36.3334,21.78922,35.7222,21.78922z"/>
	<path class="st1" d="M7.7216,28.3757h2.2291c2.7905,0,5.0735-2.28299,5.0735-5.07339V18.7569
		c0-2.79041-2.283-5.07309-5.0735-5.07309H7.7216c-2.7905,0-5.0735,2.28268-5.0735,5.07309v4.54541
		C2.6481,26.09271,4.9311,28.3757,7.7216,28.3757z"/>
	<path class="st2" d="M19.78145,8.6076c0-2.79446-2.27933-5.07379-5.07355-5.07379H8.83672v24.8396"/>
	<path class="st2" d="M19.78145,8.6076c0-2.79446-2.27933-5.07379-5.07355-5.07379H8.83672v9.03775"/>
	<path class="st3" d="M2.64864,18.75482c0-2.79443,2.27937-5.07352,5.07381-5.07352h6.98546
		c2.79443,0,5.07355-2.27936,5.07355-5.0737"/>
</g>
</svg>
